<svg width="49" height="66" viewBox="0 0 49 66" fill="none" xmlns="http://www.w3.org/2000/svg">
<g clip-path="url(#clip0_901_1233)">
<path d="M38.9672 17.9444C38.5891 17.8989 38.2082 17.864 37.8498 17.8596C37.1754 17.8515 36.4189 17.9451 35.8668 18.4257C35.3435 18.8812 35.2097 19.628 35.1688 20.2577C35.1305 20.8483 35.1675 21.5248 35.202 22.1524C35.2063 22.2322 35.2107 22.3113 35.2148 22.3893C35.2531 23.1117 35.2737 23.7406 35.1993 24.2168C35.1213 24.7166 34.9806 24.8032 34.9148 24.8253C33.6767 25.2392 32.3512 25.4637 30.972 25.4637C24.1096 25.4637 18.5466 19.9007 18.5466 13.0384C18.5466 6.17604 24.1096 0.613035 30.972 0.613035C37.8343 0.613035 43.3973 6.17604 43.3973 13.0384C43.3973 14.6152 43.1038 16.1222 42.5691 17.5086L38.9672 17.9444Z" stroke="#2D2D2D" stroke-width="1.22216"/>
<mask id="path-2-inside-1_901_1233" fill="white">
<path fill-rule="evenodd" clip-rule="evenodd" d="M2.29386 18.4635C3.57376 13.2176 8.86403 10.0024 14.11 11.2823L28.358 14.7585C33.604 16.0384 36.8192 21.3287 35.5393 26.5747C34.2594 31.8206 28.9691 35.0358 23.7231 33.7559L20.7977 33.0422L12.687 66.2857L9.16463 65.4263L9.13404 65.4191L2.4604 63.7908C1.04143 63.4446 0.171781 62.0137 0.517977 60.5947C0.864175 59.1758 2.29512 58.3061 3.71409 58.6523L6.06588 59.2261L6.30225 58.2573L5.55328 58.0746C4.29482 57.7675 3.52354 56.4984 3.83057 55.24C4.13761 53.9815 5.40669 53.2102 6.66515 53.5173L7.41412 53.7L12.9229 31.1209L9.47508 30.2797C4.2291 28.9998 1.01396 23.7095 2.29386 18.4635ZM26.8021 20.9745L12.6834 17.5298C10.8571 17.0843 9.01536 18.2035 8.56978 20.0298C8.12421 21.8561 9.2435 23.6979 11.0698 24.1434L25.1886 27.5881C27.0149 28.0337 28.8566 26.9144 29.3022 25.0881C29.7477 23.2618 28.6284 21.4201 26.8021 20.9745Z"/>
</mask>
<path fill-rule="evenodd" clip-rule="evenodd" d="M2.29386 18.4635C3.57376 13.2176 8.86403 10.0024 14.11 11.2823L28.358 14.7585C33.604 16.0384 36.8192 21.3287 35.5393 26.5747C34.2594 31.8206 28.9691 35.0358 23.7231 33.7559L20.7977 33.0422L12.687 66.2857L9.16463 65.4263L9.13404 65.4191L2.4604 63.7908C1.04143 63.4446 0.171781 62.0137 0.517977 60.5947C0.864175 59.1758 2.29512 58.3061 3.71409 58.6523L6.06588 59.2261L6.30225 58.2573L5.55328 58.0746C4.29482 57.7675 3.52354 56.4984 3.83057 55.24C4.13761 53.9815 5.40669 53.2102 6.66515 53.5173L7.41412 53.7L12.9229 31.1209L9.47508 30.2797C4.2291 28.9998 1.01396 23.7095 2.29386 18.4635ZM26.8021 20.9745L12.6834 17.5298C10.8571 17.0843 9.01536 18.2035 8.56978 20.0298C8.12421 21.8561 9.2435 23.6979 11.0698 24.1434L25.1886 27.5881C27.0149 28.0337 28.8566 26.9144 29.3022 25.0881C29.7477 23.2618 28.6284 21.4201 26.8021 20.9745Z" fill="white"/>
<path d="M23.7231 33.7559L23.3369 35.339L23.7231 33.7559ZM20.7977 33.0422L21.184 31.459L19.6008 31.0728L19.2146 32.6559L20.7977 33.0422ZM12.687 66.2857L12.3008 67.8688L13.8839 68.2551L14.2701 66.672L12.687 66.2857ZM9.16463 65.4263L9.55088 63.8432L9.54185 63.841L9.16463 65.4263ZM9.13404 65.4191L8.74779 67.0022L8.75683 67.0044L9.13404 65.4191ZM2.4604 63.7908L2.07416 65.374L2.07416 65.374L2.4604 63.7908ZM3.71409 58.6523L3.32785 60.2354L3.71409 58.6523ZM6.06588 59.2261L5.67964 60.8092L7.26275 61.1954L7.649 59.6123L6.06588 59.2261ZM6.30225 58.2573L7.88536 58.6435L8.27161 57.0604L6.68849 56.6742L6.30225 58.2573ZM6.66515 53.5173L6.27891 55.1004L6.66515 53.5173ZM7.41412 53.7L7.02788 55.2831L8.61099 55.6694L8.99724 54.0863L7.41412 53.7ZM12.9229 31.1209L14.506 31.5071L14.8923 29.924L13.3092 29.5378L12.9229 31.1209ZM9.47508 30.2797L9.08883 31.8628L9.47508 30.2797ZM11.0698 24.1434L11.456 22.5603L11.0698 24.1434ZM25.1886 27.5881L24.8023 29.1712L25.1886 27.5881ZM14.4963 9.6992C8.37595 8.20598 2.20396 11.957 0.710745 18.0773L3.87697 18.8498C4.94356 14.4781 9.35212 11.7988 13.7238 12.8654L14.4963 9.6992ZM28.7443 13.1754L14.4963 9.6992L13.7238 12.8654L27.9718 16.3416L28.7443 13.1754ZM37.1224 26.9609C38.6156 20.8406 34.8646 14.6686 28.7443 13.1754L27.9718 16.3416C32.3434 17.4082 35.0227 21.8168 33.9561 26.1884L37.1224 26.9609ZM23.3369 35.339C29.4572 36.8322 35.6292 33.0812 37.1224 26.9609L33.9561 26.1884C32.8896 30.5601 28.481 33.2394 24.1094 32.1728L23.3369 35.339ZM20.4115 34.6253L23.3369 35.339L24.1094 32.1728L21.184 31.459L20.4115 34.6253ZM19.2146 32.6559L11.1039 65.8995L14.2701 66.672L22.3808 33.4284L19.2146 32.6559ZM13.0733 64.7026L9.55088 63.8432L8.77839 67.0095L12.3008 67.8688L13.0733 64.7026ZM9.54185 63.841L9.51125 63.8338L8.75683 67.0044L8.78742 67.0116L9.54185 63.841ZM9.52029 63.8359L2.84665 62.2077L2.07416 65.374L8.7478 67.0022L9.52029 63.8359ZM2.84665 62.2077C2.30201 62.0748 1.96821 61.5256 2.10109 60.981L-1.06514 60.2085C-1.62465 62.5018 -0.219145 64.8144 2.07416 65.374L2.84665 62.2077ZM2.10109 60.981C2.23397 60.4363 2.78321 60.1025 3.32785 60.2354L4.10034 57.0692C1.80704 56.5097 -0.505622 57.9152 -1.06514 60.2085L2.10109 60.981ZM3.32785 60.2354L5.67964 60.8092L6.45213 57.643L4.10034 57.0692L3.32785 60.2354ZM7.649 59.6123L7.88536 58.6435L4.71913 57.871L4.48277 58.8398L7.649 59.6123ZM6.68849 56.6742L5.93952 56.4914L5.16703 59.6577L5.916 59.8404L6.68849 56.6742ZM5.93952 56.4914C5.55539 56.3977 5.31997 56.0103 5.41369 55.6262L2.24746 54.8537C1.7271 56.9865 3.03425 59.1373 5.16703 59.6577L5.93952 56.4914ZM5.41369 55.6262C5.50741 55.2421 5.89478 55.0067 6.27891 55.1004L7.0514 51.9342C4.91861 51.4138 2.76781 52.7209 2.24746 54.8537L5.41369 55.6262ZM6.27891 55.1004L7.02788 55.2831L7.80037 52.1169L7.0514 51.9342L6.27891 55.1004ZM8.99724 54.0863L14.506 31.5071L11.3398 30.7346L5.83101 53.3138L8.99724 54.0863ZM9.08883 31.8628L12.5367 32.704L13.3092 29.5378L9.86132 28.6966L9.08883 31.8628ZM0.710745 18.0773C-0.782475 24.1976 2.96852 30.3696 9.08883 31.8628L9.86132 28.6966C5.48967 27.63 2.81039 23.2214 3.87697 18.8498L0.710745 18.0773ZM12.2971 19.1129L26.4159 22.5576L27.1884 19.3914L13.0696 15.9467L12.2971 19.1129ZM10.1529 20.4161C10.3852 19.4641 11.3452 18.8807 12.2971 19.1129L13.0696 15.9467C10.369 15.2878 7.64556 16.943 6.98667 19.6436L10.1529 20.4161ZM11.456 22.5603C10.5041 22.3281 9.92064 21.3681 10.1529 20.4161L6.98667 19.6436C6.32777 22.3442 7.98293 25.0677 10.6836 25.7265L11.456 22.5603ZM25.5748 26.005L11.456 22.5603L10.6836 25.7265L24.8023 29.1712L25.5748 26.005ZM27.719 24.7018C27.4868 25.6538 26.5268 26.2372 25.5748 26.005L24.8023 29.1712C27.503 29.8301 30.2264 28.175 30.8853 25.4743L27.719 24.7018ZM26.4159 22.5576C27.3679 22.7899 27.9513 23.7499 27.719 24.7018L30.8853 25.4743C31.5442 22.7737 29.889 20.0503 27.1884 19.3914L26.4159 22.5576Z" fill="#2D2D2D" mask="url(#path-2-inside-1_901_1233)"/>
<mask id="path-4-inside-2_901_1233" fill="white">
<path fill-rule="evenodd" clip-rule="evenodd" d="M45.0931 30.7142C47.8846 28.634 49.4012 25.0736 48.6996 21.4256C47.7222 16.3439 42.8104 13.0167 37.7286 13.994C32.6469 14.9714 29.3196 19.8832 30.297 24.965C31.0711 28.9896 34.313 31.9138 38.1527 32.4707L41.7894 51.3794C45.6656 50.6339 48.2036 46.8873 47.4581 43.011L45.0931 30.7142ZM40.8895 21.9987C41.0542 22.8548 40.4936 23.6823 39.6375 23.8469C38.7814 24.0116 37.9539 23.4511 37.7892 22.5949C37.6246 21.7388 38.1851 20.9113 39.0412 20.7467C39.8974 20.582 40.7249 21.1426 40.8895 21.9987Z"/>
</mask>
<path fill-rule="evenodd" clip-rule="evenodd" d="M45.0931 30.7142C47.8846 28.634 49.4012 25.0736 48.6996 21.4256C47.7222 16.3439 42.8104 13.0167 37.7286 13.994C32.6469 14.9714 29.3196 19.8832 30.297 24.965C31.0711 28.9896 34.313 31.9138 38.1527 32.4707L41.7894 51.3794C45.6656 50.6339 48.2036 46.8873 47.4581 43.011L45.0931 30.7142ZM40.8895 21.9987C41.0542 22.8548 40.4936 23.6823 39.6375 23.8469C38.7814 24.0116 37.9539 23.4511 37.7892 22.5949C37.6246 21.7388 38.1851 20.9113 39.0412 20.7467C39.8974 20.582 40.7249 21.1426 40.8895 21.9987Z" fill="white"/>
<path d="M45.0931 30.7142L44.1193 29.4076L43.2998 30.0183L43.4928 31.022L45.0931 30.7142ZM38.1527 32.4707L39.7529 32.1629L39.534 31.0244L38.3866 30.858L38.1527 32.4707ZM41.7894 51.3794L40.1891 51.6872L40.4969 53.2874L42.0971 52.9797L41.7894 51.3794ZM47.4581 43.011L49.0583 42.7033L47.4581 43.011ZM46.0668 32.0209C49.3403 29.5814 51.1239 25.4026 50.2998 21.1179L47.0993 21.7334C47.6785 24.7445 46.4288 27.6866 44.1193 29.4076L46.0668 32.0209ZM50.2998 21.1179C49.1525 15.1524 43.3864 11.2465 37.4209 12.3938L38.0364 15.5942C42.2343 14.7869 46.292 17.5355 47.0993 21.7334L50.2998 21.1179ZM37.4209 12.3938C31.4554 13.5411 27.5494 19.3072 28.6968 25.2727L31.8972 24.6572C31.0898 20.4592 33.8384 16.4016 38.0364 15.5942L37.4209 12.3938ZM28.6968 25.2727C29.6059 29.9998 33.4135 33.43 37.9188 34.0834L38.3866 30.858C35.2125 30.3977 32.5362 27.9794 31.8972 24.6572L28.6968 25.2727ZM43.3896 51.0717L39.7529 32.1629L36.5525 32.7784L40.1891 51.6872L43.3896 51.0717ZM45.8578 43.3188C46.4334 46.3113 44.4741 49.2037 41.4816 49.7792L42.0971 52.9797C46.8572 52.0642 49.9738 47.4633 49.0583 42.7033L45.8578 43.3188ZM43.4928 31.022L45.8578 43.3188L49.0583 42.7033L46.6933 30.4065L43.4928 31.022ZM39.9453 25.4472C41.6852 25.1125 42.8244 23.4308 42.4897 21.6909L39.2893 22.3064C39.2885 22.3025 39.2882 22.2945 39.29 22.2856C39.2917 22.2778 39.2944 22.2722 39.2972 22.2682C39.2999 22.2642 39.3041 22.2596 39.3106 22.2552C39.3182 22.2501 39.3258 22.2475 39.3297 22.2467L39.9453 25.4472ZM36.189 22.9027C36.5236 24.6426 38.2054 25.7818 39.9453 25.4472L39.3297 22.2467C39.3337 22.246 39.3417 22.2456 39.3506 22.2475C39.3583 22.2491 39.364 22.2519 39.368 22.2546C39.372 22.2573 39.3766 22.2615 39.381 22.2681C39.3861 22.2756 39.3887 22.2832 39.3895 22.2872L36.189 22.9027ZM38.7335 19.1464C36.9936 19.4811 35.8544 21.1628 36.189 22.9027L39.3895 22.2872C39.3902 22.2911 39.3906 22.2992 39.3887 22.308C39.3871 22.3158 39.3843 22.3214 39.3816 22.3254C39.3789 22.3294 39.3747 22.3341 39.3681 22.3385C39.3606 22.3435 39.353 22.3461 39.349 22.3469L38.7335 19.1464ZM42.4897 21.6909C42.1551 19.951 40.4734 18.8118 38.7335 19.1464L39.349 22.3469C39.3451 22.3477 39.337 22.348 39.3281 22.3461C39.3204 22.3445 39.3148 22.3418 39.3108 22.339C39.3068 22.3363 39.3021 22.3321 39.2977 22.3255C39.2927 22.318 39.2901 22.3104 39.2893 22.3064L42.4897 21.6909Z" fill="#2D2D2D" mask="url(#path-4-inside-2_901_1233)"/>
</g>
<defs>
<clipPath id="clip0_901_1233">
<rect width="49" height="65.7317" fill="white"/>
</clipPath>
</defs>
</svg>
