<svg width="681" height="176" viewBox="0 0 681 176" fill="none" xmlns="http://www.w3.org/2000/svg">
<path d="M295.621 68.1917H309.023C308.271 62.8309 306.672 58.1285 304.227 54.0844C301.781 49.9463 298.725 46.5135 295.057 43.7861C291.389 41.0587 287.204 38.9897 282.501 37.579C277.799 36.1682 272.814 35.4629 267.548 35.4629C259.836 35.4629 252.97 36.8736 246.951 39.695C241.026 42.4224 236.042 46.1844 231.998 50.9808C228.048 55.7773 225.038 61.4202 222.969 67.9095C220.9 74.3048 219.865 81.1703 219.865 88.5061C219.865 95.8419 220.806 102.707 222.687 109.103C224.662 115.498 227.577 121.047 231.433 125.749C235.289 130.452 240.133 134.167 245.964 136.894C251.795 139.527 258.613 140.844 266.419 140.844C279.304 140.844 289.461 137.317 296.891 130.264C304.321 123.21 308.694 113.335 310.011 100.638H296.609C296.327 104.776 295.48 108.632 294.069 112.206C292.659 115.78 290.684 118.884 288.144 121.517C285.699 124.056 282.737 126.078 279.257 127.583C275.871 128.994 271.968 129.699 267.548 129.699C261.529 129.699 256.356 128.571 252.03 126.314C247.704 124.056 244.13 121.047 241.308 117.285C238.581 113.429 236.559 108.962 235.242 103.883C233.926 98.7104 233.267 93.2556 233.267 87.5186C233.267 82.2519 233.926 77.1733 235.242 72.2828C236.559 67.3923 238.581 63.066 241.308 59.3041C244.13 55.4481 247.657 52.3916 251.889 50.1344C256.215 47.8773 261.388 46.7487 267.407 46.7487C274.46 46.7487 280.526 48.5356 285.605 52.1094C290.778 55.6833 294.116 61.044 295.621 68.1917Z" fill="#262626"/>
<path d="M349.042 148.321C347.632 151.895 346.221 154.904 344.81 157.349C343.494 159.795 341.989 161.77 340.296 163.275C338.697 164.873 336.863 166.002 334.794 166.66C332.819 167.413 330.515 167.789 327.882 167.789C326.471 167.789 325.06 167.695 323.649 167.507C322.239 167.319 320.875 166.989 319.558 166.519V155.516C320.593 155.986 321.768 156.362 323.085 156.644C324.496 157.02 325.671 157.208 326.612 157.208C329.057 157.208 331.079 156.597 332.678 155.374C334.371 154.246 335.641 152.6 336.487 150.437L341.425 138.164L312.505 65.6524H326.048L347.35 125.326H347.632L368.087 65.6524H380.784L349.042 148.321Z" fill="#262626"/>
<path d="M387.132 37.8611V138.587H399.123V128.853H399.405C400.722 131.016 402.321 132.85 404.202 134.355C406.177 135.765 408.246 136.894 410.409 137.74C412.572 138.587 414.735 139.198 416.898 139.574C419.155 139.951 421.178 140.139 422.964 140.139C428.513 140.139 433.357 139.151 437.495 137.176C441.727 135.201 445.207 132.521 447.934 129.135C450.756 125.655 452.825 121.611 454.141 117.003C455.552 112.394 456.258 107.504 456.258 102.331C456.258 97.1586 455.552 92.268 454.141 87.6597C452.731 83.0513 450.615 79.0072 447.793 75.5275C445.066 71.9536 441.586 69.1322 437.354 67.0631C433.216 64.994 428.325 63.9595 422.682 63.9595C417.604 63.9595 412.948 64.9 408.716 66.781C404.484 68.5679 401.38 71.4834 399.405 75.5275H399.123V37.8611H387.132ZM443.561 101.485C443.561 105.059 443.185 108.538 442.432 111.924C441.68 115.31 440.457 118.319 438.765 120.953C437.072 123.586 434.815 125.702 431.993 127.301C429.266 128.9 425.833 129.699 421.695 129.699C417.557 129.699 414.03 128.947 411.114 127.442C408.199 125.843 405.801 123.774 403.92 121.235C402.133 118.696 400.816 115.78 399.97 112.488C399.123 109.103 398.7 105.623 398.7 102.049C398.7 98.6633 399.076 95.3246 399.829 92.0329C400.675 88.7412 401.992 85.8257 403.779 83.2864C405.566 80.6531 407.87 78.537 410.691 76.9382C413.513 75.3393 416.945 74.5399 420.989 74.5399C424.845 74.5399 428.184 75.2923 431.006 76.7971C433.921 78.3019 436.272 80.3239 438.059 82.8632C439.94 85.4025 441.304 88.318 442.15 91.6097C443.091 94.8074 443.561 98.099 443.561 101.485Z" fill="#262626"/>
<path d="M474.847 102.19C474.847 97.7699 475.411 93.8669 476.54 90.4811C477.763 87.0013 479.409 84.0858 481.478 81.7346C483.547 79.3834 485.945 77.5965 488.672 76.3739C491.494 75.1513 494.456 74.5399 497.56 74.5399C500.663 74.5399 503.579 75.1513 506.306 76.3739C509.128 77.5965 511.573 79.3834 513.642 81.7346C515.711 84.0858 517.31 87.0013 518.439 90.4811C519.661 93.8669 520.272 97.7699 520.272 102.19C520.272 106.61 519.661 110.56 518.439 114.04C517.31 117.426 515.711 120.294 513.642 122.646C511.573 124.903 509.128 126.643 506.306 127.865C503.579 129.088 500.663 129.699 497.56 129.699C494.456 129.699 491.494 129.088 488.672 127.865C485.945 126.643 483.547 124.903 481.478 122.646C479.409 120.294 477.763 117.426 476.54 114.04C475.411 110.56 474.847 106.61 474.847 102.19ZM462.151 102.19C462.151 107.551 462.903 112.535 464.408 117.144C465.913 121.752 468.17 125.796 471.179 129.276C474.189 132.662 477.904 135.342 482.324 137.317C486.744 139.198 491.823 140.139 497.56 140.139C503.391 140.139 508.469 139.198 512.796 137.317C517.216 135.342 520.931 132.662 523.94 129.276C526.95 125.796 529.207 121.752 530.712 117.144C532.217 112.535 532.969 107.551 532.969 102.19C532.969 96.8294 532.217 91.8448 530.712 87.2365C529.207 82.534 526.95 78.49 523.94 75.1042C520.931 71.6244 517.216 68.897 512.796 66.922C508.469 64.947 503.391 63.9595 497.56 63.9595C491.823 63.9595 486.744 64.947 482.324 66.922C477.904 68.897 474.189 71.6244 471.179 75.1042C468.17 78.49 465.913 82.534 464.408 87.2365C462.903 91.8448 462.151 96.8294 462.151 102.19Z" fill="#262626"/>
<path d="M542.452 65.6524V138.587H554.443V106.14C554.443 101.438 554.913 97.2996 555.854 93.7258C556.794 90.0579 558.299 86.9543 560.368 84.415C562.437 81.8757 565.164 79.9477 568.55 78.631C571.936 77.3144 576.027 76.656 580.823 76.656V63.9595C574.334 63.7714 568.973 65.0881 564.741 67.9095C560.509 70.731 556.935 75.1042 554.02 81.0293H553.737V65.6524H542.452Z" fill="#262626"/>
<path d="M591.888 102.19C591.888 97.7699 592.452 93.8669 593.581 90.4811C594.803 87.0013 596.449 84.0858 598.518 81.7346C600.587 79.3834 602.985 77.5965 605.713 76.3739C608.534 75.1513 611.497 74.5399 614.6 74.5399C617.704 74.5399 620.619 75.1513 623.347 76.3739C626.168 77.5965 628.614 79.3834 630.683 81.7346C632.752 84.0858 634.35 87.0013 635.479 90.4811C636.702 93.8669 637.313 97.7699 637.313 102.19C637.313 106.61 636.702 110.56 635.479 114.04C634.35 117.426 632.752 120.294 630.683 122.646C628.614 124.903 626.168 126.643 623.347 127.865C620.619 129.088 617.704 129.699 614.6 129.699C611.497 129.699 608.534 129.088 605.713 127.865C602.985 126.643 600.587 124.903 598.518 122.646C596.449 120.294 594.803 117.426 593.581 114.04C592.452 110.56 591.888 106.61 591.888 102.19ZM579.191 102.19C579.191 107.551 579.944 112.535 581.448 117.144C582.953 121.752 585.21 125.796 588.22 129.276C591.229 132.662 594.944 135.342 599.365 137.317C603.785 139.198 608.863 140.139 614.6 140.139C620.431 140.139 625.51 139.198 629.836 137.317C634.256 135.342 637.971 132.662 640.981 129.276C643.99 125.796 646.248 121.752 647.752 117.144C649.257 112.535 650.01 107.551 650.01 102.19C650.01 96.8294 649.257 91.8448 647.752 87.2365C646.248 82.534 643.99 78.49 640.981 75.1042C637.971 71.6244 634.256 68.897 629.836 66.922C625.51 64.947 620.431 63.9595 614.6 63.9595C608.863 63.9595 603.785 64.947 599.365 66.922C594.944 68.897 591.229 71.6244 588.22 75.1042C585.21 78.49 582.953 82.534 581.448 87.2365C579.944 91.8448 579.191 96.8294 579.191 102.19Z" fill="#262626"/>
<path d="M675.724 131.472H674.064C673.943 132.256 673.606 132.9 673.053 133.405C672.5 133.892 671.782 134.136 670.9 134.136C670.278 134.136 669.716 134.014 669.214 133.77C668.73 133.509 668.315 133.17 667.969 132.752C667.623 132.334 667.355 131.847 667.165 131.29C666.992 130.733 666.906 130.15 666.906 129.54C666.906 128.914 666.992 128.331 667.165 127.791C667.338 127.251 667.589 126.781 667.917 126.381C668.246 125.963 668.652 125.641 669.136 125.415C669.638 125.189 670.208 125.076 670.848 125.076C671.73 125.076 672.448 125.319 673.001 125.807C673.572 126.277 673.926 126.877 674.064 127.608H675.698C675.491 126.303 674.938 125.319 674.038 124.658C673.139 123.979 672.067 123.639 670.822 123.639C669.94 123.639 669.145 123.787 668.436 124.083C667.727 124.379 667.131 124.788 666.647 125.31C666.162 125.833 665.791 126.459 665.531 127.19C665.272 127.921 665.142 128.722 665.142 129.593C665.142 130.445 665.272 131.237 665.531 131.969C665.808 132.7 666.197 133.335 666.698 133.875C667.2 134.397 667.805 134.815 668.514 135.128C669.223 135.424 670.018 135.572 670.9 135.572C672.093 135.572 673.122 135.206 673.987 134.475C674.868 133.744 675.448 132.743 675.724 131.472ZM662.575 129.54C662.575 128.374 662.773 127.286 663.171 126.277C663.586 125.267 664.148 124.397 664.857 123.666C665.583 122.917 666.43 122.334 667.399 121.916C668.384 121.481 669.448 121.263 670.589 121.263C671.713 121.263 672.759 121.481 673.727 121.916C674.695 122.334 675.534 122.917 676.243 123.666C676.969 124.397 677.531 125.267 677.929 126.277C678.344 127.286 678.551 128.374 678.551 129.54C678.551 130.741 678.344 131.855 677.929 132.882C677.531 133.892 676.969 134.771 676.243 135.52C675.534 136.268 674.695 136.86 673.727 137.295C672.759 137.713 671.713 137.922 670.589 137.922C669.448 137.922 668.384 137.713 667.399 137.295C666.43 136.86 665.583 136.268 664.857 135.52C664.148 134.771 663.586 133.892 663.171 132.882C662.773 131.855 662.575 130.741 662.575 129.54ZM660.811 129.54C660.811 130.95 661.07 132.256 661.589 133.457C662.108 134.64 662.808 135.676 663.69 136.564C664.589 137.434 665.626 138.113 666.802 138.6C667.995 139.088 669.257 139.332 670.589 139.332C671.92 139.332 673.174 139.088 674.35 138.6C675.525 138.113 676.554 137.434 677.436 136.564C678.318 135.676 679.018 134.64 679.537 133.457C680.056 132.256 680.315 130.95 680.315 129.54C680.315 128.165 680.056 126.886 679.537 125.702C679.018 124.518 678.318 123.491 677.436 122.621C676.554 121.751 675.525 121.072 674.35 120.585C673.174 120.08 671.92 119.827 670.589 119.827C669.257 119.827 667.995 120.08 666.802 120.585C665.626 121.072 664.589 121.751 663.69 122.621C662.808 123.491 662.108 124.518 661.589 125.702C661.07 126.886 660.811 128.165 660.811 129.54Z" fill="#262626"/>
<path fill-rule="evenodd" clip-rule="evenodd" d="M29.2198 19.6575C44.3064 7.37506 63.5993 0 84.6028 0C133.172 0 172.515 39.343 172.543 87.8557C172.599 136.368 133.144 175.88 84.6028 175.88C53.1397 175.88 25.5463 159.363 10.011 134.546C3.75763 124.591 0.196294 113.122 0 101.372V100.194C0 62.029 29.6965 31.0706 66.2914 31.0706C89.3419 31.0706 109.644 43.325 121.534 61.9729L143.575 52.4106C129.751 26.5278 102.466 8.91737 71.0585 8.91737C70.0196 8.91737 69.0339 8.94402 68.0236 8.97135L67.9459 8.97345C54.2613 9.47821 41.362 13.9369 30.4536 21.3119C30.2574 21.4241 30.0611 21.4802 29.8648 21.4802C29.6124 21.4802 29.332 21.368 29.1357 21.1717C28.715 20.7511 28.7431 20.0501 29.2198 19.6575ZM82.9483 152.689C83.5092 152.717 84.07 152.717 84.6309 152.717C112.392 152.717 136.06 135.247 145.286 110.738L122.964 104.064C116.963 118.365 103.167 128.601 86.9023 129.47C86.1451 129.526 85.388 129.526 84.6309 129.526C61.6644 129.526 43.0445 110.906 43.0445 87.9679C43.0445 79.4431 45.6244 71.5352 50.027 64.9173L44.1382 58.1592C33.6224 64.9734 26.3876 76.4426 25.322 89.6504C25.2378 90.8562 25.2098 92.062 25.2098 93.2959C25.2098 94.081 25.2378 94.8662 25.2659 95.6514C26.4436 125.853 50.1392 150.249 80.032 152.521C80.5928 152.577 81.1536 152.605 81.7145 152.633C81.8234 152.633 81.9388 152.639 82.0577 152.646C82.1838 152.653 82.3137 152.661 82.4436 152.661C82.6118 152.661 82.7801 152.661 82.9483 152.689Z" fill="#262626"/>
</svg>
